<?xml version="1.0" standalone="no"?>
<!DOCTYPE svg PUBLIC "-//W3C//DTD SVG 20010904//EN"
 "http://www.w3.org/TR/2001/REC-SVG-20010904/DTD/svg10.dtd">
<svg version="1.0" xmlns="http://www.w3.org/2000/svg"
 width="672.000000pt" height="672.000000pt" viewBox="0 0 672.000000 672.000000"
 preserveAspectRatio="xMidYMid meet">
<metadata>
Created by potrace 1.11, written by Peter Selinger 2001-2013
</metadata>
<g transform="translate(0.000000,672.000000) scale(0.100000,-0.100000)"
fill="#000000" stroke="none">
<path d="M1503 6051 c-76 -76 -144 -145 -151 -154 -12 -14 6 -35 137 -166
l151 -151 120 0 121 0 99 -102 100 -103 -100 -100 -99 -99 -451 -1 -450 0
-150 -150 -150 -149 152 -152 152 -152 164 -1 165 0 99 -98 c54 -54 98 -101
98 -104 0 -4 -45 -51 -99 -106 l-99 -98 -491 0 -491 0 -151 -151 -150 -150
151 -150 151 -149 715 0 714 0 100 -102 100 -102 -102 -103 -103 -104 -713 1
-714 0 -144 -143 c-80 -80 -146 -148 -147 -153 -1 -5 65 -76 147 -158 l149
-150 562 2 563 2 100 -101 101 -100 -98 -103 -97 -102 -241 0 -240 -1 -152
-152 -151 -152 151 -149 150 -150 474 0 474 -1 99 -101 99 -102 -99 -101 -99
-100 -145 0 -144 0 -150 -150 -150 -150 153 -153 153 -152 607 0 607 0 145
147 c80 80 145 151 145 157 0 6 -65 77 -145 156 l-145 145 -163 0 -162 0 -102
102 -101 102 102 102 102 101 159 1 159 1 149 149 149 149 -151 152 -151 152
-380 1 -381 0 -100 99 c-83 82 -98 101 -90 116 6 10 51 56 100 103 l90 85 380
0 379 1 150 150 150 150 -151 150 -152 151 -240 -2 -240 -1 -97 99 c-54 54
-98 102 -98 106 0 3 45 51 100 106 l100 100 244 0 244 0 146 146 c80 80 146
149 146 153 0 4 -66 73 -146 155 l-146 149 -450 1 -450 2 -94 92 c-52 51 -94
97 -94 103 0 11 164 178 191 195 7 4 213 8 456 7 l444 0 149 152 150 153 -152
152 -153 152 -135 -2 -135 -1 -105 103 -104 104 101 101 102 102 140 1 140 1
133 135 c73 75 139 143 147 153 13 15 -1 32 -135 166 l-148 149 -607 0 -608 0
-138 -138z"/>
<path d="M3718 6039 c-82 -82 -148 -152 -148 -156 0 -5 66 -74 148 -154 l147
-146 135 1 135 1 98 -97 c53 -54 97 -102 97 -108 0 -6 -43 -53 -95 -105 l-95
-95 -138 0 -138 0 -147 -149 c-81 -81 -147 -151 -147 -155 0 -4 66 -73 147
-154 l148 -146 450 -1 451 0 97 -98 c53 -53 97 -101 97 -105 0 -4 -44 -52 -99
-106 l-99 -98 -446 0 -447 0 -150 -149 c-82 -81 -149 -151 -149 -154 0 -11
263 -271 285 -282 11 -5 122 -9 257 -9 l237 1 102 -101 101 -102 -64 -63 c-35
-35 -82 -80 -105 -101 l-41 -36 -242 -1 -242 -1 -149 -148 -149 -149 154 -154
153 -154 379 2 378 2 88 -87 c49 -48 93 -88 98 -90 24 -8 4 -38 -88 -130 l-97
-97 -380 0 -380 0 -152 -153 -153 -152 146 -147 c157 -157 174 -167 256 -153
20 4 42 3 49 0 6 -4 23 -5 37 -1 14 4 46 4 69 1 24 -4 46 -4 48 0 3 4 52 -40
109 -99 l105 -106 -102 -100 -102 -100 -157 0 -156 0 -146 -146 c-80 -80 -146
-151 -146 -156 0 -6 66 -77 146 -157 l147 -147 609 0 609 0 151 151 152 151
-151 150 -151 151 -144 -1 -143 0 -102 101 -101 101 99 101 100 101 472 0 472
0 153 150 152 150 -149 150 -150 150 -236 0 -236 1 -101 101 -102 102 100 99
c54 54 106 101 114 104 8 3 27 2 41 -2 15 -5 32 -4 39 0 6 4 27 4 46 0 19 -4
50 -4 69 0 19 4 37 4 40 0 3 -4 21 -4 40 0 19 4 37 4 40 0 3 -4 21 -4 40 0 19
4 37 4 40 0 3 -4 20 -5 37 -1 18 4 42 6 53 5 34 -3 87 -5 153 -4 35 0 67 -2
72 -5 5 -3 11 -1 15 5 4 6 11 8 16 5 5 -4 30 -6 56 -5 27 0 57 1 68 0 11 0 38
0 60 1 22 1 47 1 55 0 8 0 42 -1 75 -1 l59 0 148 147 c82 81 147 151 145 156
-1 4 -67 72 -146 152 l-145 145 -50 0 c-28 0 -351 1 -717 1 l-666 0 -97 94
c-53 51 -96 99 -96 105 0 6 42 53 94 105 l95 93 717 1 718 1 148 150 c81 83
148 154 147 158 0 4 -66 72 -147 152 l-147 144 -495 1 -495 1 -85 85 c-47 47
-91 94 -99 103 -13 16 -5 27 87 116 l102 99 138 0 c75 0 149 0 164 0 21 1 60
35 177 153 l151 151 -151 151 -151 151 -449 0 -449 1 -95 94 c-52 52 -95 99
-95 105 0 6 43 54 95 108 l94 97 123 0 123 0 147 147 c82 81 148 152 148 158
0 5 -67 76 -148 157 l-147 147 -610 -1 -610 0 -147 -149z"/>
</g>
</svg>
